<svg width="86" height="83" viewBox="0 0 86 83" fill="none" xmlns="http://www.w3.org/2000/svg">
<path fill-rule="evenodd" clip-rule="evenodd" d="M69.3775 58.7376C60.8582 73.0011 45.1005 67.5042 29.1736 61.8537C13.2467 56.2033 0.81966 46.9952 9.33897 32.7317C17.8583 18.4682 37.6595 11.4896 53.5803 17.1351C69.5011 22.7806 77.8608 44.5154 69.3487 58.7706L69.3775 58.7376Z" fill="#5F2DED" fill-opacity="0.05"/>
<path d="M56.8483 44.6935C56.3965 44.2639 55.7953 44.0262 55.1558 44.0262C54.5164 44.0262 53.9166 44.2639 53.4634 44.6935L44.7409 52.9886C44.7306 52.9886 44.7183 52.9867 44.708 52.9867H36.1438C36.1438 52.9541 36.1458 52.9229 36.1458 52.8898C36.1458 52.2537 36.0301 51.6443 35.8165 51.0772H40.4735C40.7924 51.6951 41.4593 52.1214 42.2316 52.1214C43.314 52.1214 44.193 51.2873 44.193 50.258C44.193 49.2287 43.314 48.3946 42.2316 48.3946C41.4593 48.3946 40.7924 48.821 40.4735 49.4389H34.8321C33.7928 48.2507 32.2243 47.4949 30.4716 47.4949C28.9393 47.4949 27.5502 48.0736 26.53 49.0111L26.5281 49.0092L13.45 61.5669H26.5486L30.0217 58.2842H44.708C45.1956 58.2842 45.6542 58.1645 46.0526 57.9548C46.325 57.8434 46.5749 57.6827 46.79 57.4776L56.8488 47.9124C57.3015 47.4832 57.5499 46.911 57.5499 46.3029C57.5499 45.6949 57.3015 45.1231 56.8483 44.6935ZM30.4716 55.1422C29.1633 55.1422 28.1034 54.1325 28.1034 52.8902C28.1034 51.6461 29.1633 50.6369 30.4716 50.6369C31.7799 50.6369 32.8397 51.6466 32.8397 52.8902C32.8397 54.1325 31.7799 55.1422 30.4716 55.1422ZM44.6664 56.9106C43.9255 56.9106 43.3253 56.3402 43.3253 55.6352C43.3253 54.9321 43.925 54.3599 44.6664 54.3599C45.4077 54.3599 46.0075 54.9321 46.0075 55.6352C46.0075 56.3402 45.4077 56.9106 44.6664 56.9106ZM47.3001 54.6749C47.133 54.2634 46.8606 53.9028 46.5127 53.6209L53.0537 47.4026C53.2727 47.7814 53.602 48.096 54.0019 48.3024L47.3001 54.6749ZM47.231 27.4762H39.4753V26.493H47.231V27.4762ZM47.231 30.0986H39.4753V29.1155H47.231V30.0986ZM34.3048 27.4762H26.5486V26.493H34.3044L34.3048 27.4762ZM34.3048 30.0986H26.5486V29.1155H34.3044L34.3048 30.0986ZM52.057 23.8701H50.3308V22.2313H39.589C38.7295 22.2313 37.9215 22.55 37.3139 23.1283C37.1517 23.2825 37.0106 23.4512 36.8886 23.6301C36.7666 23.4512 36.6255 23.2825 36.4633 23.1283C35.8557 22.55 35.0477 22.2313 34.1882 22.2313H23.4464V23.8701H21.7231V41.8991H35.0217C35.2677 42.6582 36.011 43.2103 36.8901 43.2103C37.7691 43.2103 38.5125 42.6586 38.7585 41.8991H52.057V23.8701ZM38.0455 23.8231C38.4576 23.4307 39.0059 23.2145 39.589 23.2145H49.2964L49.2797 38.6211H41.4471C40.0344 38.6211 38.6364 38.9873 37.4237 39.6644L37.407 25.2918C37.4065 24.7373 37.6329 24.2159 38.0455 23.8231ZM24.4803 23.215H34.1877C34.7708 23.215 35.3191 23.4312 35.7312 23.8235C36.1433 24.2159 36.3702 24.7377 36.3697 25.2922L36.353 39.6653C35.1388 38.9878 33.7413 38.6215 32.3296 38.6215H24.4803V23.215Z" fill="#5F2DED"/>
<rect x="26" y="26.5417" width="8" height="0.993317" fill="#FFB31F"/>
<rect x="39" y="26.5417" width="8" height="0.993317" fill="#FFB31F"/>
<rect x="26" y="29.5198" width="8" height="0.993319" fill="#FFB31F"/>
<rect x="39" y="29.5198" width="8" height="0.993319" fill="#FFB31F"/>
</svg>
